Coordinates
version=1
nRows=6
nColumns=63
inDegrees=yes

Units are S.I. units (second, meters, Newtons, ...)
If the header above contains a line with 'inDegrees', this indicates whether rotational values are in degrees (yes) or radians (no).

endheader
time	pelvis_tilt	pelvis_list	pelvis_rotation	pelvis_tx	pelvis_ty	pelvis_tz	hip_flexion_r	hip_adduction_r	hip_rotation_r	knee_angle_r	knee_angle_r_beta	ankle_angle_r	subtalar_angle_r	mtp_angle_r	hip_flexion_l	hip_adduction_l	hip_rotation_l	knee_angle_l	knee_angle_l_beta	ankle_angle_l	subtalar_angle_l	mtp_angle_l	L5_S1_Flex_Ext	L5_S1_Lat_Bending	L5_S1_axial_rotation	L4_L5_Flex_Ext	L4_L5_Lat_Bending	L4_L5_axial_rotation	L3_L4_Flex_Ext	L3_L4_Lat_Bending	L3_L4_axial_rotation	L2_L3_Flex_Ext	L2_L3_Lat_Bending	L2_L3_axial_rotation	L1_L2_Flex_Ext	L1_L2_Lat_Bending	L1_L2_axial_rotation	L1_T12_Flex_Ext	L1_T12_Lat_Bending	L1_T12_axial_rotation	Abs_r3	Abs_r2	Abs_r1	Abs_t1	Abs_t2	neck_flexion	neck_bending	neck_rotation	arm_flex_r	arm_add_r	arm_rot_r	elbow_flex_r	pro_sup_r	wrist_flex_r	wrist_dev_r	arm_flex_l	arm_add_l	arm_rot_l	elbow_flex_l	pro_sup_l	wrist_flex_l	wrist_dev_l
1.847458	0.332323	-3.267579	91.972036	0.163788	0.998967	0.235137	-13.404087	-2.557067	7.337274	0.845347	0.014754	21.226539	-7.429483	0.000000	-12.141125	-1.477447	-3.900511	0.440683	0.007691	24.425025	6.862951	0.000000	0.201589	-0.167558	1.669586	0.374370	-0.222852	1.773935	0.331190	-0.407400	1.773935	0.230396	-0.407400	1.460888	0.187195	-0.341683	1.356538	0.115188	-0.259547	1.252189	1.439928	-1.895445	9.285736	0.000000	0.000000	7.907514	2.506784	-26.688149	53.604235	-72.262564	79.090797	12.503818	11.009286	4.947449	8.890342	85.817457	-45.867746	189.254260	1.875464	11.175809	-9.013294	-1.283193
1.864407	0.281777	-3.326767	91.757721	0.164328	0.998999	0.235536	-13.251771	-2.637377	7.126860	0.882162	0.015397	21.455811	-6.785709	0.000000	-12.036386	-1.410256	-4.670519	0.441750	0.007710	24.596118	7.828693	0.000000	0.200549	-0.183233	1.730801	0.372439	-0.243700	1.838976	0.329482	-0.445513	1.838976	0.229207	-0.445513	1.514451	0.186230	-0.373649	1.406276	0.114594	-0.283828	1.298101	1.432500	-2.072769	9.626194	0.000000	0.000000	7.986268	2.652848	-27.088713	51.306172	-72.315909	69.070477	13.202695	12.431536	4.506414	9.671097	85.928320	-45.597025	191.949387	1.884226	14.561736	-8.402613	-0.849734
1.881356	0.258576	-3.405724	91.572033	0.164871	0.999006	0.236067	-13.070609	-2.681342	6.943725	0.916808	0.016001	21.667047	-6.210852	0.000000	-11.902903	-1.375705	-5.308446	0.446145	0.007787	24.736806	8.610955	0.000000	0.200329	-0.195613	1.780100	0.372030	-0.260165	1.891356	0.329120	-0.475612	1.891356	0.228955	-0.475612	1.557588	0.186025	-0.398893	1.446331	0.114468	-0.303004	1.335075	1.430927	-2.212808	9.900383	0.000000	0.000000	8.087316	2.781712	-27.433049	49.321317	-72.275053	60.384586	13.753054	13.267867	4.146562	10.397390	85.986453	-45.267157	196.183958	1.863527	20.574340	-7.801582	0.118512
1.898305	0.250596	-3.496791	91.412350	0.165420	0.998992	0.236710	-12.874650	-2.702199	6.776983	0.945841	0.016508	21.849482	-5.707976	0.000000	-11.754129	-1.364875	-5.904060	0.454875	0.007939	24.872103	9.367495	0.000000	0.200336	-0.206104	1.817435	0.372044	-0.274118	1.931025	0.329132	-0.501121	1.931025	0.228964	-0.501121	1.590256	0.186032	-0.420287	1.476666	0.114472	-0.319255	1.363076	1.430981	-2.331489	10.108029	0.000000	0.000000	8.213396	2.918534	-27.709572	47.499887	-72.208286	52.112827	14.266066	14.088967	3.823312	11.108482	85.984064	-44.844290	202.405017	1.803647	29.227378	-7.066705	1.495295
1.915254	0.235729	-3.606129	91.284098	0.166012	0.998960	0.237438	-12.664630	-2.717362	6.634968	0.971888	0.016963	21.997604	-5.317251	0.000000	-11.588956	-1.355158	-6.294518	0.464265	0.008103	24.957077	9.831290	0.000000	0.200483	-0.219565	1.850332	0.372317	-0.292022	1.965977	0.329373	-0.533851	1.965977	0.229132	-0.533851	1.619040	0.186168	-0.447738	1.503394	0.114556	-0.340107	1.387749	1.432029	-2.483766	10.290989	0.000000	0.000000	8.357499	3.059087	-28.047009	45.597603	-72.149061	44.335227	14.726369	14.976524	3.472769	11.884380	86.016824	-44.330343	208.913236	1.712957	40.047470	-6.672129	3.331828
1.932203	0.237488	-3.725429	91.166331	0.166605	0.998908	0.238244	-12.449074	-2.711009	6.609630	0.991285	0.017301	22.078022	-5.141893	0.000000	-11.419398	-1.363172	-6.523465	0.475840	0.008305	24.998400	10.019478	0.000000	0.200817	-0.230662	1.877523	0.372938	-0.306780	1.994868	0.329923	-0.560831	1.994868	0.229514	-0.560831	1.642833	0.186479	-0.470366	1.525488	0.114747	-0.357295	1.408142	1.434418	-2.609294	10.442220	0.000000	0.000000	8.506286	3.170754	-28.339142	43.897491	-72.099236	37.502466	15.130711	15.975291	3.135642	12.697887	86.098492	-43.862009	214.878101	1.602512	49.373261	-6.657246	5.004882
